<?xml version="1.0" encoding="UTF-8" standalone="no"?>
<svg
   xmlns:dc="http://purl.org/dc/elements/1.1/"
   xmlns:cc="http://creativecommons.org/ns#"
   xmlns:rdf="http://www.w3.org/1999/02/22-rdf-syntax-ns#"
   xmlns:svg="http://www.w3.org/2000/svg"
   xmlns="http://www.w3.org/2000/svg"
   xmlns:sodipodi="http://sodipodi.sourceforge.net/DTD/sodipodi-0.dtd"
   xmlns:inkscape="http://www.inkscape.org/namespaces/inkscape"
   height="31.563pt"
   viewBox="-2.094 -1.094 81.938 14.688"
   width="168.063pt"
   version="1.1"
   id="svg30"
   sodipodi:docname="acoswt.svg"
   inkscape:version="0.92.4 (5da689c313, 2019-01-14)">
  <metadata
     id="metadata34">
    <rdf:RDF>
      <cc:Work
         rdf:about="">
        <dc:format>image/svg+xml</dc:format>
        <dc:type
           rdf:resource="http://purl.org/dc/dcmitype/StillImage" />
      </cc:Work>
    </rdf:RDF>
  </metadata>
  <sodipodi:namedview
     pagecolor="#ffffff"
     bordercolor="#666666"
     borderopacity="1"
     objecttolerance="10"
     gridtolerance="10"
     guidetolerance="10"
     inkscape:pageopacity="0"
     inkscape:pageshadow="2"
     inkscape:window-width="1920"
     inkscape:window-height="1017"
     id="namedview32"
     showgrid="false"
     inkscape:zoom="1.4012602"
     inkscape:cx="112.042"
     inkscape:cy="21.042"
     inkscape:window-x="-8"
     inkscape:window-y="-8"
     inkscape:window-maximized="1"
     inkscape:current-layer="svg30" />
  <!--MMFDATAMMF.7h_b3`00QEM]Ln963?h5o0LnVQTO|joNmGdSe9Lb3I31_U`ol(E=gIAY0SO6mmI(oW^UmMZF)I^6Q)RAMRDmFZd`nmGV`gJgGVB[kFKb)]T_MlTRfnj2MEkm_LjO3XoCnj8lWhkiloCChCSmJ^M:c2KkK9GM9D5n?QboEO?cebM*?BBk59`4)YbJL(Y0ll|RB`8AC[T(Yh891U;dW|_gVX(anOgnK[7J1;?9ffBbCi(|Ffe^(H(dgBcFBO3aG9CC]:RZ`a6mWj^0QN_e|SQFGlXOVn9K7*;DO5P];]BRE|])_GgnlkH|RWmJVaZbNGOj`Qf_eM5`L1=VQiOR?0GMM7MjbHn]aHK;diOb0=cXnWQd?AmS?D:KSo3VehScJlci27Dn`Yf?TnO3k?ThOG59g`LGHjLn*UmLXbn^dALSm(D8OC5)G`cC5n?diLSYba7jlY:ndol;EdN4G=*b3gVX_AjdXMBe;47VbP(5`?Q56Pg26b8dN=T*CaHGAAk40:bGXH5iF)on7:3(JQ7Ch5hFI0VVXNNf1YP6m`KMA_k||VSd1[Ra^OC8)RCloYP4LHWX1W2BRL3ZN1W3:nV1Zl;LNnJH*2=7e37FPL|6HBFR1|Bmi0BSY4T:0R|*=d0BMX:F*6RbQJHPC9NK|?fH]0JB9R0i:HQdIm00fAhP04E?AoNLbjR;:`dQ;Rge7A)PJ0X:Dk3NPA:4ZY9dVJ:PCT4e2c65MjgAMd?C?iH*DC4QXQU];IZ6aSClOTf?*R_|TjHM];|F3B|MdAk*V8G`|REbg7EJa8Q(FR4BGDTSFXC8QFn0k[a64O64Qb2K?2;[63LXkZ8HNQT(K*A3hQ^(kbn3DJjbaR==]b3i9ZHQ[FP`__:bjd)O||G`d_^b=;b]nk11TYYX8mZj2aXDMM*|9_2^W*NFF)8^]IPAVI*o5RAR;;_:aXZdMjc9`L*AgF98alBFPYSL((iHKkH`gXNR=kPTVCa(DJ2k0n:|=iBHjB5;blDIJDC)FLoF6hgL3JKF95eYFf=m;E^XjLJ80Q)Z3V1Ag[D^NeEa0k8mONi6Y6R0X(3MS0K*T[PI:EY4chJk(FUKA5Z32g8i^:BODfi(]P)6Bg8o)0a:eRedoMUTj2NUKYOfC|L=bkJ*KUYfZ5LB=bnKK^I^H;I0m1IR;Te9g(A4bngR7SieFNRHQa;nehReE^i*g`X_KgF=j)cd?oMF2K^|ee_oK]g`A:|2Sm9KG:4LU]jZWNJWUkM6;X^a[4a[=LiZNUIkMFml_A[oDbb)YcZHmFjkc*8fQb_9iQ7lLABPCd7U?UYNo[[h1U?[n81)o?`lFQ_T`):1QmOJP0n^Rk8lnGGh_7Yc))KUSaXK`9_R:Jn:6U_0^n8i[`jWHjf9*O)*UhOlSnM2n6bA*U8mNXC99mn[(_MHT1dO_4h)j=B0CUoXlVMPP4lR(1B|nhD?M`m0ITifB69;iFE_^D:e)a]D:;mBXA=H_;cK`F5|C^D;O:o=R^nEklojaNOeAEY^kkJGjn0dgLn00=]Pdle_cSU8jLMeP6EKKK80gJFoKSoM;=84SFoXOI(UV`bol]jlkYO1HKK?l45mmU[SJ_JfO`ST3=hDR2TlFIXIj1NcO*Zg1lG7dkVg:HF7=KNV_oL=`_d7A*(]1`.mmf-->
  <defs
     id="defs2" />
  <g
     aria-label="c"
     style="font-size:12px;font-family:MMCenturyNew;fill:#000000"
     id="text4">
    <path
       d="m 47.4638,9.19 c -0.312,1.284 -1.176,1.38 -1.548,1.38 -0.852,0 -1.848,-0.684 -1.848,-2.484 0,-1.524 0.84,-2.388 1.848,-2.388 0.552,0 1.08,0.264 1.296,0.684 -0.012,0 -0.024,0 -0.024,0 -0.384,0 -0.54,0.3 -0.54,0.552 0,0.348 0.264,0.552 0.54,0.552 0.252,0 0.576,-0.168 0.576,-0.612 0,-0.66 -0.768,-1.512 -1.98,-1.512 -1.608,0 -2.616,1.356 -2.616,2.808 0,1.56 1.14,2.748 2.664,2.748 1.704,0 1.944,-1.488 1.968,-1.644 z"
       style="font-size:12px;font-family:MMCenturyNew;fill:#000000"
       id="path877" />
  </g>
  <g
     aria-label="o"
     style="font-size:12px;font-family:MMCenturyNew;fill:#000000"
     id="text6">
    <path
       d="m 50.9643,10.918 c 1.236,0 2.46,-0.984 2.46,-2.712 0,-1.86 -1.296,-2.844 -2.46,-2.844 -1.176,0 -2.472,0.984 -2.472,2.844 0,1.728 1.224,2.712 2.472,2.712 z m 0.012,-0.336 c -0.648,0 -1.572,-0.372 -1.572,-2.424 0,-1.908 0.804,-2.472 1.548,-2.472 0.396,0 1.548,0.192 1.548,2.292 0,2.472 -1.104,2.604 -1.524,2.604 z"
       style="font-size:12px;font-family:MMCenturyNew;fill:#000000"
       id="path874" />
  </g>
  <g
     aria-label="s"
     style="font-size:12px;font-family:MMCenturyNew;fill:#000000"
     id="text8">
    <path
       d="m 54.35,10.918 0.408,-0.528 c 0.276,0.312 0.732,0.528 1.356,0.528 1.356,0 1.896,-0.852 1.896,-1.668 0,-0.432 -0.144,-0.84 -0.432,-1.116 C 56.774,7.366 55.766,7.606 55.022,7.078 54.806,6.922 54.71,6.742 54.71,6.55 c 0,-0.408 0.48,-0.852 1.176,-0.852 0.9,0 1.26,0.624 1.476,1.452 h 0.336 v -1.8 h -0.252 l -0.288,0.384 c -0.372,-0.276 -0.9,-0.372 -1.236,-0.372 -1.2,0 -1.812,0.732 -1.812,1.476 0,0.372 0.156,0.744 0.468,1.008 0.828,0.684 1.908,0.42 2.532,1.044 0.192,0.18 0.288,0.42 0.288,0.672 0,0.216 -0.144,1.032 -1.236,1.032 -1.248,0 -1.536,-0.876 -1.728,-1.788 h -0.348 v 2.112 z"
       style="font-size:12px;font-family:MMCenturyNew;fill:#000000"
       id="path871" />
  </g>
  <g
     aria-label="i"
     style="font-style:italic;font-size:12px;font-family:MMCenturyNew;fill:#000000"
     id="text10">
    <path
       d="m 3.29475,3.178 c 0,-0.348 -0.288,-0.636 -0.636,-0.636 -0.348,0 -0.636,0.288 -0.636,0.636 0,0.348 0.288,0.636 0.636,0.636 0.348,0 0.636,-0.288 0.636,-0.636 z m -0.204,5.736 c -0.36,0.9 -0.924,1.68 -1.38,1.68 -0.168,0 -0.288,-0.132 -0.288,-0.444 0,-0.072 0.012,-0.192 0.12,-0.648 0.24,-0.912 0.696,-1.74 1.02,-2.616 0.084,-0.216 0.12,-0.42 0.12,-0.588 0,-0.624 -0.468,-0.948 -0.972,-0.948 -0.264,0 -1.044,0.012 -1.728,1.896 l 0.348,0.156 c 0.276,-0.708 0.78,-1.728 1.332,-1.728 0.168,0 0.288,0.12 0.288,0.36 0,0.228 -0.096,0.516 -0.18,0.732 -0.336,0.9 -0.768,1.776 -1.008,2.712 -0.048,0.168 -0.06,0.336 -0.06,0.468 0,0.66 0.432,0.972 0.912,0.972 0.372,0 0.768,-0.18 1.02,-0.528 0.288,-0.396 0.612,-0.912 0.768,-1.32 z"
       style="font-style:italic;font-size:12px;font-family:MMCenturyNew;fill:#000000"
       id="path868" />
  </g>
  <g
     aria-label="t"
     style="font-style:italic;font-size:12px;font-family:MMCenturyNew;fill:#000000"
     id="text12">
    <path
       d="m 12.84625,8.3827996 c -0.072,0.156 -0.732,1.6560004 -1.464,1.6560004 -0.216,0 -0.372,-0.1320004 -0.372,-0.4680004 v -0.012 c 0,-0.192 0.036,-0.36 0.096,-0.588 l 0.948,-3.612 h 1.128 l 0.096,-0.372 h -1.128 l 0.588,-2.28 h -0.804 l -0.576,2.28 h -0.96 l -0.096,0.372 h 0.96 l -0.912,3.54 c -0.048,0.168 -0.06,0.324 -0.06,0.468 0,0.6840004 0.48,1.0080004 1.008,1.0080004 0.36,0 1.092,-0.024 1.86,-1.8360004 z"
       style="font-style:italic;font-size:12px;font-family:MMCenturyNew;fill:#000000"
       id="path865" />
  </g>
  <g
     aria-label="A"
     style="font-style:italic;font-size:12px;font-family:MMCenturyNew;fill:#000000"
     id="text14">
    <path
       d="m 39.6413,10.75 0.096,-0.372 c -0.432,-0.024 -0.684,-0.06 -0.72,-0.552 l -0.54,-7.416 h -0.528 l -4.152,7.212 c -0.336,0.576 -0.924,0.756 -1.248,0.756 l -0.084,0.372 h 2.472 l 0.096,-0.372 c -0.228,0 -0.852,-0.168 -0.852,-0.54 0,-0.072 0.012,-0.144 0.06,-0.216 l 0.924,-1.608 h 2.7 l 0.132,1.812 c 0,0.012 0,0.012 0,0.024 0,0.444 -0.876,0.528 -1.044,0.528 l -0.096,0.372 z m -1.812,-3.108 h -2.448 l 2.172,-3.78 z"
       style="font-style:italic;font-size:12px;font-family:MMCenturyNew;fill:#000000"
       id="path862" />
  </g>
  <g
     aria-label="t"
     style="font-style:italic;font-size:12px;font-family:MMCenturyNew;fill:#000000"
     id="text16">
    <path
       d="m 75.221303,8.3827996 c -0.072,0.156 -0.732,1.6560004 -1.464,1.6560004 -0.216,0 -0.372,-0.1320004 -0.372,-0.4680004 v -0.012 c 0,-0.192 0.036,-0.36 0.096,-0.588 l 0.948,-3.612 h 1.128 l 0.096,-0.372 h -1.128 l 0.588,-2.28 h -0.804 l -0.576,2.28 h -0.96 l -0.096,0.372 h 0.96 l -0.912,3.54 c -0.048,0.168 -0.06,0.324 -0.06,0.468 0,0.6840004 0.48,1.0080004 1.008,1.0080004 0.36,0 1.092,-0.024 1.86,-1.8360004 z"
       style="font-style:italic;font-size:12px;font-family:MMCenturyNew;fill:#000000"
       id="path859" />
  </g>
  <g
     aria-label="~"
     style="font-style:italic;font-size:12px;font-family:MMCenturyOldGreek;fill:#000000"
     id="text18">
    <path
       d="m 67.3403,9.4987996 c 0.144,0.6720004 0.588,0.9120004 1.116,0.9120004 0.78,0 1.716,-0.5040004 2.16,-0.9480004 0.744,-0.744 1.32,-1.968 1.32,-3.132 0,-1.284 -0.756,-2.148 -1.128,-2.148 -0.096,0 -0.156,0.06 -0.156,0.192 0,0.108 0.036,0.264 0.144,0.48 0.156,0.336 0.228,0.732 0.228,1.152 0,2.064 -1.404,3.768 -2.4,3.768 -0.408,0 -0.672,-0.3 -0.672,-0.66 0,-0.12 0.024,-0.24 0.084,-0.372 0.228,-0.468 0.72,-1.224 0.996,-2.028 0.132,-0.384 0.192,-0.732 0.192,-1.008 0,-0.36 -0.108,-0.588 -0.3,-0.588 -0.408,0 -1.632,1.44 -1.632,3.576 v 0.18 c 0,0.192 -0.66,0.804 -1.26,0.804 -0.684,0 -1.092,-0.72 -1.092,-1.392 0,-1.452 1.008,-2.976 2.268,-3.648 0.324,-0.18 0.468,-0.324 0.468,-0.408 0,-0.06 -0.072,-0.096 -0.192,-0.096 -0.9,0 -3.48,1.476 -3.48,4.08 0,1.224 0.84,1.9920004 1.728,1.9920004 0.252,0 0.948,-0.012 1.608,-0.7080004 z"
       style="font-style:italic;font-size:12px;font-family:MMCenturyOldGreek;fill:#000000"
       id="path856" />
  </g>
  <g
     aria-label="="
     style="font-size:12px;font-family:MMCenturyNew;fill:#000000"
     id="text20">
    <path
       d="m 29.6515,5.6522996 v -0.552 h -7.128 v 0.552 z m 0,2.328 v -0.552 h -7.128 v 0.552 z"
       style="font-size:12px;font-family:MMCenturyNew;fill:#000000"
       id="path853" />
  </g>
  <g
     aria-label="Q"
     style="font-size:12px;font-family:MMVariableF;fill:#000000"
     id="text22">
    <path
       d="m 7.5780502,1.4879897 c -1.728,1.116 -2.784,3 -2.784,5.1 0,2.1 1.056,4.0200003 2.784,5.1360003 l 0.072,-0.096 c -1.476,-1.62 -1.896,-3.1440003 -1.896,-5.0160003 0,-1.872 0.42,-3.42 1.896,-5.04 z"
       style="font-size:12px;font-family:MMVariableF;fill:#000000"
       id="path850" />
  </g>
  <g
     aria-label="Q"
     style="font-size:12px;font-family:MMVariableF;fill:#000000"
     id="text24">
    <path
       d="m 62.738799,1.5085996 c -1.728,1.116 -2.784,3 -2.784,5.1 0,2.1 1.056,4.0200004 2.784,5.1360004 l 0.072,-0.096 c -1.476,-1.62 -1.896,-3.1440004 -1.896,-5.0160004 0,-1.872 0.42,-3.42 1.896,-5.04 z"
       style="font-size:12px;font-family:MMVariableF;fill:#000000"
       id="path847" />
  </g>
  <g
     aria-label="V"
     style="font-size:12px;font-family:MMVariableF;fill:#000000"
     id="text26">
    <path
       d="m 16.1184,1.4879897 -0.072,0.096 c 1.476,1.608 1.896,3.156 1.896,5.028 0,1.872 -0.42,3.4080003 -1.896,5.0160003 l 0.072,0.096 c 1.728,-1.128 2.784,-3.0360003 2.784,-5.1360003 0,-2.1 -1.056,-3.984 -2.784,-5.1 z"
       style="font-size:12px;font-family:MMVariableF;fill:#000000"
       id="path844" />
  </g>
  <g
     aria-label="V"
     style="font-size:12px;font-family:MMVariableF;fill:#000000"
     id="text28">
    <path
       d="m 77.062203,1.5085996 -0.072,0.096 c 1.476,1.608 1.896,3.156 1.896,5.028 0,1.872 -0.42,3.4080004 -1.896,5.0160004 l 0.072,0.096 c 1.728,-1.128 2.784,-3.0360004 2.784,-5.1360004 0,-2.1 -1.056,-3.984 -2.784,-5.1 z"
       style="font-size:12px;font-family:MMVariableF;fill:#000000"
       id="path841" />
  </g>
</svg>
