<?xml version="1.0" encoding="UTF-8" standalone="no"?>
<svg
   xmlns:dc="http://purl.org/dc/elements/1.1/"
   xmlns:cc="http://creativecommons.org/ns#"
   xmlns:rdf="http://www.w3.org/1999/02/22-rdf-syntax-ns#"
   xmlns:svg="http://www.w3.org/2000/svg"
   xmlns="http://www.w3.org/2000/svg"
   xmlns:sodipodi="http://sodipodi.sourceforge.net/DTD/sodipodi-0.dtd"
   xmlns:inkscape="http://www.inkscape.org/namespaces/inkscape"
   height="31.563pt"
   viewBox="-2.094 -1.094 80.906 14.688"
   width="166.000pt"
   version="1.1"
   id="svg30"
   sodipodi:docname="asinwt.svg"
   inkscape:version="0.92.4 (5da689c313, 2019-01-14)">
  <metadata
     id="metadata34">
    <rdf:RDF>
      <cc:Work
         rdf:about="">
        <dc:format>image/svg+xml</dc:format>
        <dc:type
           rdf:resource="http://purl.org/dc/dcmitype/StillImage" />
      </cc:Work>
    </rdf:RDF>
  </metadata>
  <sodipodi:namedview
     pagecolor="#ffffff"
     bordercolor="#666666"
     borderopacity="1"
     objecttolerance="10"
     gridtolerance="10"
     guidetolerance="10"
     inkscape:pageopacity="0"
     inkscape:pageshadow="2"
     inkscape:window-width="1920"
     inkscape:window-height="1017"
     id="namedview32"
     showgrid="false"
     inkscape:zoom="1.4186747"
     inkscape:cx="110.66667"
     inkscape:cy="21.042"
     inkscape:window-x="-8"
     inkscape:window-y="-8"
     inkscape:window-maximized="1"
     inkscape:current-layer="svg30" />
  <!--MMFDATAMMF.7h_f3`00QEMOLn963?l4O0LNcHc3k5o_n]h8mJE(PlUPGjh?_;QG=fFJ`=E`ek]Vl]d[[MNfc=Td94*oJEOBCj|EI[M:gfnfjdFnfZBCelU^^DdFnFHK[8_cWn_RJOmYnU1FYn)QN9ing1nVGneLRMUTUjobnbA8o_iBW?O7``fOWkhnPOXafFKP:=3Qe8AC1YZO5WTBR73:ICPEC32*XWML_Y(FS(V_3oN;EA[(9VnCbBi;lWbEgV4FFIH^eTW`hEAFdj`lWoL7m7hj1baL[iOUhObUnYjFom*Q*(f7eN92;FZek=BKimo_Z[;lZkFY8I]gYboLlEXM3*LgHKio:DmCd4fgaiORd5Y|^3anZOK0SJj?AmOc(MHS]?T8Kgj=);o6W8m*ib?LnCQi?|bNSm(GUoAmL35fjR?daCGjhQYm(D9OS=0GhoC5(7daCUn)W;hLXBl_jC_m_g1eA(Q5;O)*Qm[[*A]:GL|BI:hlD02(GjCA8;`Q*X)G3O5TLE7T**c0NQTJV8Oek|l1bZ`F(*g^ID6FH1YjKV^0JG1_d6gTcbj;AVn06i];Sja3`^n?BA2GR6h09iT8[8jG(KbB7[PZc;eWSPTdLT*MHafhK11F8VY0g4])(4ZJY22`0W43964WJ0V49U]X2|9d^*WKSdU[86T2TY)2B7L63I3]0*9*m7AdckV(^[SB4);BD]la0HZVX305jadX*JPZBILY2^XDE;(*DkQYSKhKV_jaQ8R:2A7=J6_A=3BVhOM[NQAJHIldkJ3M]FQHjHSfP(H|Q9L]TN)^db96I=8:TNQ:6]4RA2il0gCW=HZ89c`4fN*AFLNh*G4GaM3;H6PS61;OH7ao6HabUCDNJKX5bCLa3FU5Po6EUedOnY*]QYONUjGQKMf73I;DA1_AeUg*X:RSIS61VgHNF6:9^mARAVABoUR*R;7|:Q|[d]ja9PLCAgB;8AdCF`YRL|(hHkgI`WPOR]kPTVCb(4F1kPj8|mi*HZJ7;2dGIj*A)FLmFfldLSNHFY=dYFf=mKE|XJHK8`Y(Z3Z0AKUYGOJZhPITNo[LSDSA0461^aT=X2Ea(e:dR9h=Mf?B]XRd1QOTLW19?jOLV6`739OTOW0HU:aKj?ZcbM1?B]d^kIf)6iI]8Mfdk52_96iN=]g(gL1|PNP]a5bJT[R9RIJka*=lj[;*(*lUo:lAJjgLXKhEG]kZ6]7IjGo^[A9fFJngo]fjhHUF1AjU]kQ2)BbmEC_=3bm_SE`FHeVIeVZLeOB|m^[Nn7XeoZMH74me()_]IY(7K0iGT|dSn)(X*9n2bWfd_?aal*fVe_41WOSaNK*fb8750`n_]*4OG1MEMOC[l7WeMWlXZ^le=X3ClZThUcFfP;OU|o]BEf]Rd3`FeKkhkKTD?U^TT9`oNHC99mo)EN6a83_NNidLd:T1WKk*5Lo009m4H2QHm`|OkQj0c9c|T(BF:Z[NLXEZMcJXD7jU*RN`N7VoQL=8SmD;O;O=bfmWgioeRlo[RkCLg6l^el5Y^Yl10KK1Y]]OW7)*|Po[0(^fB_(0gFDoKckN;[84SFoX?LfC=(N__;N_^fF`WnebO52O_MKh?7_K?*Ib1Vl:a0bN;(d(m8_I;X?KPn9YOnQ]b^1QcJgYkgf3L?l1_i?UW*.mmf-->
  <defs
     id="defs2" />
  <g
     aria-label="s"
     style="font-size:12px;font-family:MMCenturyNew;fill:#000000"
     id="text4">
    <path
       d="m 43.4125,10.918 0.408,-0.528 c 0.276,0.312 0.732,0.528 1.356,0.528 1.356,0 1.896,-0.852 1.896,-1.668 0,-0.432 -0.144,-0.84 -0.432,-1.116 -0.804,-0.768 -1.812,-0.528 -2.556,-1.056 -0.216,-0.156 -0.312,-0.336 -0.312,-0.528 0,-0.408 0.48,-0.852 1.176,-0.852 0.9,0 1.26,0.624 1.476,1.452 h 0.336 v -1.8 h -0.252 l -0.288,0.384 c -0.372,-0.276 -0.9,-0.372 -1.236,-0.372 -1.2,0 -1.812,0.732 -1.812,1.476 0,0.372 0.156,0.744 0.468,1.008 0.828,0.684 1.908,0.42 2.532,1.044 0.192,0.18 0.288,0.42 0.288,0.672 0,0.216 -0.144,1.032 -1.236,1.032 -1.248,0 -1.536,-0.876 -1.728,-1.788 h -0.348 v 2.112 z"
       style="font-size:12px;font-family:MMCenturyNew;fill:#000000"
       id="path877" />
  </g>
  <g
     aria-label="i"
     style="font-size:12px;font-family:MMCenturyNew;fill:#000000"
     id="text6">
    <path
       d="m 49.499,3.178 c 0,-0.348 -0.288,-0.636 -0.636,-0.636 -0.348,0 -0.636,0.288 -0.636,0.636 0,0.348 0.288,0.636 0.636,0.636 0.348,0 0.636,-0.288 0.636,-0.636 z m 0.924,7.572 v -0.372 c -0.516,0 -0.924,0 -0.924,-0.468 V 5.458 h -0.228 l -1.524,0.12 v 0.36 c 0.708,0 0.912,0.024 0.912,0.672 v 3.3 c 0,0.468 -0.396,0.468 -0.924,0.468 v 0.372 z"
       style="font-size:12px;font-family:MMCenturyNew;fill:#000000"
       id="path874" />
  </g>
  <g
     aria-label="n"
     style="font-size:12px;font-family:MMCenturyNew;fill:#000000"
     id="text8">
    <path
       d="m 57.0333,10.75 v -0.372 c -0.516,0 -0.936,0 -0.936,-0.468 V 7.066 c 0,-0.432 -0.036,-0.9 -0.372,-1.236 -0.324,-0.312 -0.768,-0.468 -1.212,-0.468 -1.128,0 -1.572,0.792 -1.776,1.236 v -1.14 h -0.228 l -1.476,0.12 v 0.36 c 0.72,0 0.924,0.012 0.924,0.672 v 3.3 c 0,0.468 -0.42,0.468 -0.936,0.468 v 0.372 h 2.7 v -0.372 c -0.528,0 -0.936,-0.012 -0.936,-0.468 V 7.75 c 0,-0.888 0.576,-1.932 1.572,-1.932 0.9,0 0.912,0.96 0.912,1.248 V 9.91 c 0,0.456 -0.408,0.468 -0.936,0.468 v 0.372 z"
       style="font-size:12px;font-family:MMCenturyNew;fill:#000000"
       id="path871" />
  </g>
  <g
     aria-label="i"
     style="font-style:italic;font-size:12px;font-family:MMCenturyNew;fill:#000000"
     id="text10">
    <path
       d="m 3.29475,3.178 c 0,-0.348 -0.288,-0.636 -0.636,-0.636 -0.348,0 -0.636,0.288 -0.636,0.636 0,0.348 0.288,0.636 0.636,0.636 0.348,0 0.636,-0.288 0.636,-0.636 z m -0.204,5.736 c -0.36,0.9 -0.924,1.68 -1.38,1.68 -0.168,0 -0.288,-0.132 -0.288,-0.444 0,-0.072 0.012,-0.192 0.12,-0.648 0.24,-0.912 0.696,-1.74 1.02,-2.616 0.084,-0.216 0.12,-0.42 0.12,-0.588 0,-0.624 -0.468,-0.948 -0.972,-0.948 -0.264,0 -1.044,0.012 -1.728,1.896 l 0.348,0.156 c 0.276,-0.708 0.78,-1.728 1.332,-1.728 0.168,0 0.288,0.12 0.288,0.36 0,0.228 -0.096,0.516 -0.18,0.732 -0.336,0.9 -0.768,1.776 -1.008,2.712 -0.048,0.168 -0.06,0.336 -0.06,0.468 0,0.66 0.432,0.972 0.912,0.972 0.372,0 0.768,-0.18 1.02,-0.528 0.288,-0.396 0.612,-0.912 0.768,-1.32 z"
       style="font-style:italic;font-size:12px;font-family:MMCenturyNew;fill:#000000"
       id="path868" />
  </g>
  <g
     aria-label="t"
     style="font-style:italic;font-size:12px;font-family:MMCenturyNew;fill:#000000"
     id="text12">
    <path
       d="m 12.84625,8.3827996 c -0.072,0.156 -0.732,1.6560004 -1.464,1.6560004 -0.216,0 -0.372,-0.1320004 -0.372,-0.4680004 v -0.012 c 0,-0.192 0.036,-0.36 0.096,-0.588 l 0.948,-3.612 h 1.128 l 0.096,-0.372 h -1.128 l 0.588,-2.28 h -0.804 l -0.576,2.28 h -0.96 l -0.096,0.372 h 0.96 l -0.912,3.54 c -0.048,0.168 -0.06,0.324 -0.06,0.468 0,0.6840004 0.48,1.0080004 1.008,1.0080004 0.36,0 1.092,-0.024 1.86,-1.8360004 z"
       style="font-style:italic;font-size:12px;font-family:MMCenturyNew;fill:#000000"
       id="path865" />
  </g>
  <g
     aria-label="A"
     style="font-style:italic;font-size:12px;font-family:MMCenturyNew;fill:#000000"
     id="text14">
    <path
       d="m 39.6413,10.75 0.096,-0.372 c -0.432,-0.024 -0.684,-0.06 -0.72,-0.552 l -0.54,-7.416 h -0.528 l -4.152,7.212 c -0.336,0.576 -0.924,0.756 -1.248,0.756 l -0.084,0.372 h 2.472 l 0.096,-0.372 c -0.228,0 -0.852,-0.168 -0.852,-0.54 0,-0.072 0.012,-0.144 0.06,-0.216 l 0.924,-1.608 h 2.7 l 0.132,1.812 c 0,0.012 0,0.012 0,0.024 0,0.444 -0.876,0.528 -1.044,0.528 l -0.096,0.372 z m -1.812,-3.108 h -2.448 l 2.172,-3.78 z"
       style="font-style:italic;font-size:12px;font-family:MMCenturyNew;fill:#000000"
       id="path862" />
  </g>
  <g
     aria-label="t"
     style="font-style:italic;font-size:12px;font-family:MMCenturyNew;fill:#000000"
     id="text16">
    <path
       d="m 74.19,8.3827996 c -0.072,0.156 -0.732,1.6560004 -1.464,1.6560004 -0.216,0 -0.372,-0.1320004 -0.372,-0.4680004 v -0.012 c 0,-0.192 0.036,-0.36 0.096,-0.588 l 0.948,-3.612 h 1.128 l 0.096,-0.372 h -1.128 l 0.588,-2.28 h -0.804 l -0.576,2.28 h -0.96 l -0.096,0.372 h 0.96 l -0.912,3.54 c -0.048,0.168 -0.06,0.324 -0.06,0.468 0,0.6840004 0.48,1.0080004 1.008,1.0080004 0.36,0 1.092,-0.024 1.86,-1.8360004 z"
       style="font-style:italic;font-size:12px;font-family:MMCenturyNew;fill:#000000"
       id="path859" />
  </g>
  <g
     aria-label="~"
     style="font-style:italic;font-size:12px;font-family:MMCenturyOldGreek;fill:#000000"
     id="text18">
    <path
       d="M 66.309,9.4987996 C 66.453,10.1708 66.897,10.4108 67.425,10.4108 c 0.78,0 1.716,-0.5040004 2.16,-0.9480004 0.744,-0.744 1.32,-1.968 1.32,-3.132 0,-1.284 -0.756,-2.148 -1.128,-2.148 -0.096,0 -0.156,0.06 -0.156,0.192 0,0.108 0.036,0.264 0.144,0.48 0.156,0.336 0.228,0.732 0.228,1.152 0,2.064 -1.404,3.768 -2.4,3.768 -0.408,0 -0.672,-0.3 -0.672,-0.66 0,-0.12 0.024,-0.24 0.084,-0.372 0.228,-0.468 0.72,-1.224 0.996,-2.028 0.132,-0.384 0.192,-0.732 0.192,-1.008 0,-0.36 -0.108,-0.588 -0.3,-0.588 -0.408,0 -1.632,1.44 -1.632,3.576 v 0.18 c 0,0.192 -0.66,0.804 -1.26,0.804 -0.684,0 -1.092,-0.72 -1.092,-1.392 0,-1.452 1.008,-2.976 2.268,-3.648 0.324,-0.18 0.468,-0.324 0.468,-0.408 0,-0.06 -0.072,-0.096 -0.192,-0.096 -0.9,0 -3.48,1.476 -3.48,4.08 0,1.224 0.84,1.9920004 1.728,1.9920004 0.252,0 0.948,-0.012 1.608,-0.7080004 z"
       style="font-style:italic;font-size:12px;font-family:MMCenturyOldGreek;fill:#000000"
       id="path856" />
  </g>
  <g
     aria-label="="
     style="font-size:12px;font-family:MMCenturyNew;fill:#000000"
     id="text20">
    <path
       d="m 29.6515,5.6522996 v -0.552 h -7.128 v 0.552 z m 0,2.328 v -0.552 h -7.128 v 0.552 z"
       style="font-size:12px;font-family:MMCenturyNew;fill:#000000"
       id="path853" />
  </g>
  <g
     aria-label="Q"
     style="font-size:12px;font-family:MMVariableF;fill:#000000"
     id="text22">
    <path
       d="m 7.5780502,1.4879897 c -1.728,1.116 -2.784,3 -2.784,5.1 0,2.1 1.056,4.0200003 2.784,5.1360003 l 0.072,-0.096 c -1.476,-1.62 -1.896,-3.1440003 -1.896,-5.0160003 0,-1.872 0.42,-3.42 1.896,-5.04 z"
       style="font-size:12px;font-family:MMVariableF;fill:#000000"
       id="path850" />
  </g>
  <g
     aria-label="Q"
     style="font-size:12px;font-family:MMVariableF;fill:#000000"
     id="text24">
    <path
       d="m 61.7075,1.5085996 c -1.728,1.116 -2.784,3 -2.784,5.1 0,2.1 1.056,4.0200004 2.784,5.1360004 l 0.072,-0.096 c -1.476,-1.62 -1.896,-3.1440004 -1.896,-5.0160004 0,-1.872 0.42,-3.42 1.896,-5.04 z"
       style="font-size:12px;font-family:MMVariableF;fill:#000000"
       id="path847" />
  </g>
  <g
     aria-label="V"
     style="font-size:12px;font-family:MMVariableF;fill:#000000"
     id="text26">
    <path
       d="m 16.1184,1.4879897 -0.072,0.096 c 1.476,1.608 1.896,3.156 1.896,5.028 0,1.872 -0.42,3.4080003 -1.896,5.0160003 l 0.072,0.096 c 1.728,-1.128 2.784,-3.0360003 2.784,-5.1360003 0,-2.1 -1.056,-3.984 -2.784,-5.1 z"
       style="font-size:12px;font-family:MMVariableF;fill:#000000"
       id="path844" />
  </g>
  <g
     aria-label="V"
     style="font-size:12px;font-family:MMVariableF;fill:#000000"
     id="text28">
    <path
       d="m 76.030999,1.5085996 -0.072,0.096 c 1.476,1.608 1.896,3.156 1.896,5.028 0,1.872 -0.42,3.4080004 -1.896,5.0160004 l 0.072,0.096 c 1.728,-1.128 2.784,-3.0360004 2.784,-5.1360004 0,-2.1 -1.056,-3.984 -2.784,-5.1 z"
       style="font-size:12px;font-family:MMVariableF;fill:#000000"
       id="path841" />
  </g>
</svg>
