<?xml version="1.0" encoding="UTF-8" standalone="no"?>
<svg
   xmlns:dc="http://purl.org/dc/elements/1.1/"
   xmlns:cc="http://creativecommons.org/ns#"
   xmlns:rdf="http://www.w3.org/1999/02/22-rdf-syntax-ns#"
   xmlns:svg="http://www.w3.org/2000/svg"
   xmlns="http://www.w3.org/2000/svg"
   xmlns:sodipodi="http://sodipodi.sourceforge.net/DTD/sodipodi-0.dtd"
   xmlns:inkscape="http://www.inkscape.org/namespaces/inkscape"
   height="32.813pt"
   viewBox="-2.094 -1.094 20.281 15.313"
   width="44.750pt"
   version="1.1"
   id="svg12"
   sodipodi:docname="phimax.svg"
   inkscape:version="0.92.4 (5da689c313, 2019-01-14)">
  <metadata
     id="metadata16">
    <rdf:RDF>
      <cc:Work
         rdf:about="">
        <dc:format>image/svg+xml</dc:format>
        <dc:type
           rdf:resource="http://purl.org/dc/dcmitype/StillImage" />
      </cc:Work>
    </rdf:RDF>
  </metadata>
  <sodipodi:namedview
     pagecolor="#ffffff"
     bordercolor="#666666"
     borderopacity="1"
     objecttolerance="10"
     gridtolerance="10"
     guidetolerance="10"
     inkscape:pageopacity="0"
     inkscape:pageshadow="2"
     inkscape:window-width="1920"
     inkscape:window-height="1017"
     id="namedview14"
     showgrid="false"
     inkscape:zoom="5.2625698"
     inkscape:cx="29.833333"
     inkscape:cy="21.875333"
     inkscape:window-x="-8"
     inkscape:window-y="-8"
     inkscape:window-maximized="1"
     inkscape:current-layer="svg12" />
  <!--MMFDATAMMF.7h^l3`00QEM]Ln963?h5o0Ln)S()|joNmGdSe9Lb3I01geeWBSnhEcO7=436hJjiI_;O:jegKIVcJDR27VUGdZ?E2[)M;mn_eX]Y?Ul]AjnSkFbMCO?E)UXDYbn;hV7gNGaOE|o7*o4ho[*kS;oIRA9GXfdncnnbj)W;K[lkC9jo?H3ZHkKNP9=8af(CSaUXOY[VFBCR(IOaF331*3;_67^WDS1V_mkOCNO;j6[d=QY]=eVNciNgV(5V|i`^|^S3LeV==nGY]3^PmnMCa);5HUHNCUn[kl_bWcX4Z7VoFYbYAJfF[G[en)M]EIIo=cKEIo?^m9TkGZ^Co^0VcWOklWT(^_7j^2l)SLG6|n?GJPOLj?YdL3dOHSe0V`o`iYN8ld_(n*1e?|2M3i?WoNci(7eaC]l75d)W?T1OG:8_;]4G0oC507daC5oddaO3m)G0jL|1n_:L_]?o2eM7a5cD(Xmi[;dN];7D]Ba1i|X31L3hAAX=`Q|B=7SI44lF5bDNY02|Uj61NEc_OXY*I[F8JG0_2k84dm0CF`=(Pg^3KR8o^Bb2gP0g=Y4NFHN4ginB82hA7*0WV*R|SYLa_98N^2Y(_6N)2**iXHja3U`6Q9E80TPkb*U6BI(D15HP3D0BMX:F*6RbQJHPC9^K|=fH]0JB9R0i:HQdIa20K0h*P::WXc_)IM;6UHH*UiKjCPU*=0F5:ES_*0U2EDVjC55*Yj32*TcQ^S7jKPSmH`TAUA8RV]7FXVUXC(?_eo*X](8n2NfPgKD8[7A2Nd1S5|;;U|QYffT98c9YQDBd9DeX4A8G?P3MNTdBhPT?*HHl4^|H1iBfD*bm38HfPR7a3LKgUl4XEeWSTJIKT7b8JDP[6Xb__)cjd:M|(Kcd_R`=Kn|n34QB4fe4FgM1*4U;cF82eldl|(BB]ZVUS(RTo:TP4E?IESIEY;eCC*hVCNPF*cXV]ABTi8IaaSZcQO4^59g19LWTHHX2gAh*IifQa4`7FEX^cTPSL|hj]|iXi6h`=BKYB]|Hjf_I*4dg9QBHF;D0Rg;M^)aDa*g8i_Bi6i4R0461^aT1d9:h6BTJA(n6^c5Y6dAJP`]b)KRTWe=^C3H3QT]b?cP(B]H^M?dI(_BCDSM;)jOSQVECB3L]Fm*YRI^GXI^i6iP=49f5V4|XRI^HJ;VMg|)W;X|MleS2NheHHnD)MJg`lUKGR(i)gkVgB]QU_MkjomH=Ck*Zl2RmaAG:HNV]fVUnN7U[h[8Hb|XdE^)|YV)e5oNVUj_a?lGRN:ZmFJmGZcaR4kRBK9;07dL1nQADkZ=UomOI=iQJag]dh|OWdMXPNaKg?;cF1Wa`WEKEdJo3imFKgJ6X_]OH05jF3lFY[;45_2hORm?^N:Pe:FPn5]F^n))a53iKY92M?W^4bFL_Yj[`F90Mkke)m^QDSdjOjHY7H81?8S0D[?^53gL?*6I)MTQRBaEEIkU2]C|KE2RoDZ4CF3bkFl=Q;8oE7[kGi^G;bOMWoN:CnR;=EWN[lgE`V^jWAh1]|)WV5nLLY(f7AHAUVboc2=e]OUim^YU^(SBnXOMUWReco(Yklk[M`1)9_=[V_lG`H)5oOXOWc:]G](jROO5bmOKf1Q_o0j|c[B8.mmf-->
  <defs
     id="defs2" />
  <g
     aria-label="m"
     style="font-size:6px;font-family:MMCenturyNew;fill:#000000"
     id="text4">
    <path
       d="m 12.2255,12.8125 v -0.186 c -0.258,0 -0.468,0 -0.468,-0.234 v -1.422 c 0,-0.216 -0.018,-0.45 -0.186,-0.618 -0.162,-0.156 -0.384,-0.234 -0.606,-0.234 -0.234,0 -0.648,0.084 -0.882,0.6 -0.06,-0.468 -0.492,-0.6 -0.78,-0.6 -0.564,0 -0.786,0.396 -0.888,0.618 v -0.57 h -0.114 l -0.738,0.06 v 0.18 c 0.36,0 0.462,0.006 0.462,0.336 v 1.65 c 0,0.234 -0.21,0.234 -0.468,0.234 v 0.186 h 1.35 v -0.186 c -0.264,0 -0.468,-0.006 -0.468,-0.234 v -1.08 c 0,-0.444 0.288,-0.966 0.786,-0.966 0.45,0 0.456,0.48 0.456,0.624 v 1.422 c 0,0.228 -0.204,0.234 -0.468,0.234 v 0.186 h 1.35 v -0.186 c -0.258,0 -0.468,0 -0.468,-0.234 v -1.08 c 0,-0.57 0.414,-0.966 0.792,-0.966 0.45,0 0.456,0.48 0.456,0.624 v 1.422 c 0,0.228 -0.204,0.234 -0.468,0.234 v 0.186 z"
       style="font-size:6px;font-family:MMCenturyNew;fill:#000000"
       id="path832" />
  </g>
  <g
     aria-label="a"
     style="font-size:6px;font-family:MMCenturyNew;fill:#000000"
     id="text6">
    <path
       d="m 14.6058,11.0065 c 0,-0.624 -0.48,-0.888 -0.942,-0.888 -0.582,0 -0.978,0.414 -0.978,0.75 0,0.162 0.084,0.318 0.282,0.318 0.168,0 0.276,-0.144 0.276,-0.282 0,-0.162 -0.132,-0.258 -0.258,-0.258 -0.006,0 -0.012,0 -0.018,0 0.096,-0.21 0.366,-0.354 0.63,-0.354 0.096,0 0.588,0.03 0.588,0.672 v 0.282 c -0.216,0.012 -0.642,-0.012 -1.164,0.258 -0.336,0.174 -0.498,0.456 -0.498,0.714 0,0.462 0.432,0.678 0.834,0.678 0.264,0 0.696,-0.096 0.882,-0.546 0.006,0.228 0.18,0.504 0.486,0.504 0.138,0 0.282,-0.06 0.384,-0.186 0,0 -0.09,-0.096 -0.108,-0.126 -0.048,0.06 -0.108,0.09 -0.168,0.09 -0.102,0 -0.228,-0.09 -0.228,-0.306 z m -0.42,1.008 c 0,0.186 -0.198,0.696 -0.726,0.696 -0.27,0 -0.516,-0.216 -0.516,-0.504 0,-0.12 0.036,-0.738 1.242,-0.834 z"
       style="font-size:6px;font-family:MMCenturyNew;fill:#000000"
       id="path829" />
  </g>
  <g
     aria-label="x"
     style="font-size:6px;font-family:MMCenturyNew;fill:#000000"
     id="text8">
    <path
       d="m 18.082,12.8125 v -0.186 c -0.234,-0.012 -0.27,-0.018 -0.468,-0.276 l -0.72,-0.954 0.582,-0.744 c 0.192,-0.24 0.264,-0.264 0.498,-0.276 v -0.186 h -1.05 v 0.186 c 0.072,0 0.396,0.024 0.396,0.168 0,0.03 -0.012,0.066 -0.048,0.108 l -0.48,0.612 -0.468,-0.612 c -0.036,-0.048 -0.054,-0.09 -0.054,-0.126 0,-0.126 0.222,-0.15 0.3,-0.15 v -0.186 h -1.152 v 0.186 c 0.228,0.012 0.288,0.042 0.468,0.276 l 0.684,0.894 -0.642,0.804 c -0.186,0.234 -0.336,0.264 -0.564,0.276 v 0.186 h 1.086 v -0.186 c -0.078,0 -0.36,-0.018 -0.36,-0.156 0,-0.03 0.018,-0.072 0.054,-0.12 l 0.528,-0.672 0.51,0.672 c 0.03,0.042 0.042,0.078 0.042,0.108 0,0.144 -0.3,0.168 -0.372,0.168 v 0.186 z"
       style="font-size:6px;font-family:MMCenturyNew;fill:#000000"
       id="path826" />
  </g>
  <g
     aria-label="{"
     style="font-style:italic;font-size:12px;font-family:MMCenturyOldGreek;fill:#000000"
     id="text10">
    <path
       d="m 2.9465,9.3547996 c 0.264,-0.828 0.54,-2.112 0.912,-3.24 0.372,-1.104 0.924,-1.344 1.356,-1.344 0.684,0 0.924,0.636 0.924,1.356 0,2.424 -2.076,3.276 -2.856,3.276 -0.132,0 -0.24,-0.012 -0.336,-0.048 z m -0.9,0.516 C 1.8065,10.5188 1.6865,10.8788 1.3745,11.3708 c -0.096,0.144 -0.132,0.288 -0.132,0.408 0,0.3 0.228,0.492 0.492,0.492 0.24,0 0.492,-0.168 0.6,-0.576 0.108,-0.444 0.264,-1.188 0.444,-1.7760004 0.168,0.036 0.324,0.048 0.492,0.048 1.68,0 3.168,-1.704 3.168,-3.888 0,-1.032 -0.324,-2.064 -1.272,-2.064 -0.996,0 -1.488,0.984 -1.908,2.316 -0.432,1.368 -0.984,2.892 -0.984,2.892 -0.912,-0.384 -1.308,-1.008 -1.308,-1.86 0,-1.572 1.272,-2.916 2.016,-3.156 0.156,-0.048 0.228,-0.12 0.228,-0.18 0,-0.048 -0.048,-0.084 -0.144,-0.084 -0.6,0 -3.048,1.092 -3.048,3.372 0,1.224 0.828,2.136 2.028,2.556 z"
       style="font-style:italic;font-size:12px;font-family:MMCenturyOldGreek;fill:#000000"
       id="path823" />
  </g>
</svg>
