<?xml version="1.0" encoding="UTF-8" standalone="no"?>
<svg
   xmlns:dc="http://purl.org/dc/elements/1.1/"
   xmlns:cc="http://creativecommons.org/ns#"
   xmlns:rdf="http://www.w3.org/1999/02/22-rdf-syntax-ns#"
   xmlns:svg="http://www.w3.org/2000/svg"
   xmlns="http://www.w3.org/2000/svg"
   xmlns:sodipodi="http://sodipodi.sourceforge.net/DTD/sodipodi-0.dtd"
   xmlns:inkscape="http://www.inkscape.org/namespaces/inkscape"
   height="32.813pt"
   viewBox="-2.094 -1.094 19.406 15.313"
   width="43.000pt"
   version="1.1"
   id="svg12"
   sodipodi:docname="phimin.svg"
   inkscape:version="0.92.4 (5da689c313, 2019-01-14)">
  <metadata
     id="metadata16">
    <rdf:RDF>
      <cc:Work
         rdf:about="">
        <dc:format>image/svg+xml</dc:format>
        <dc:type
           rdf:resource="http://purl.org/dc/dcmitype/StillImage" />
      </cc:Work>
    </rdf:RDF>
  </metadata>
  <sodipodi:namedview
     pagecolor="#ffffff"
     bordercolor="#666666"
     borderopacity="1"
     objecttolerance="10"
     gridtolerance="10"
     guidetolerance="10"
     inkscape:pageopacity="0"
     inkscape:pageshadow="2"
     inkscape:window-width="1920"
     inkscape:window-height="1017"
     id="namedview14"
     showgrid="false"
     inkscape:zoom="5.3942036"
     inkscape:cx="28.666667"
     inkscape:cy="21.875333"
     inkscape:window-x="-8"
     inkscape:window-y="-8"
     inkscape:window-maximized="1"
     inkscape:current-layer="svg12" />
  <!--MMFDATAMMF.7h^h3`00QEM]Lm|f3?h5oPonZ=`Y?X8_8]E_SZMV_|EbcUKKgLgkX7EJiU]RMh[K]L_U_hnPB0Ub9Bm)HS`02N01*ESN;O)gjleZGRcGnNAU|U]||WVagTB[l_CWZWcHOicNEoGclE0nCSo|3m(_IRKieFAG;8^k;3[l?G_nlV3Qnfbc]*hR5Dme?6EFll)lb28NCd74Dlhh|i9n`mPKPLK|io^knC:?[RJ_TlU^VaG5([o5j=]]?UmUdK_WZYi^Zm=YOd3_cjN8aJ_EXSZL?]OOl^ZO9XAE`k2JWjUiXaJMN_ghnfeMEGne=SUTlnkDVC]Xe(U`L1dGnjOZNFYedlgaZCbd5Q(_SYo[_NE6ejNSjf6(m*Q]6)4=UhS39NH`*Qe6^((hNAQV3n?dnCUm7ib?WOX8OGj9?[m4Who*ib?dnCQm?TbOSm(G8jL_A^R;LoY)ojnm)S`6g|P**jblgVYSXAYIF1VT1m82kALY=71_B=3PIDdl6EbDN91JH;a|6aSRI_NW26GFR9P6N9VC9IR6VYT6H1[P3JZ=o(UU4OCJLV(chI5aR?_m:*WR4U410(V4HgFlS)6Ul(1EHNHm0bH*i8*jaSZ020P[T*B*mY;SS98V:G2|*1Z08)`h;*5GI0]=PN|^=fkj(FT=14e002V8L6L*P6P?d099CdOeW8^TRb|d8Bh(mIdB86T:4U(`gX7TQ:XDM9VTX4U1QXFH`WE[m=d*n|L*8S8UA1BS[DGCD9R6gjoXDBR9OA;J*KU[4ERYQ?J0`RbhU`fAdjkC4TITdPX9kdZJd28T;W`0Z_)J9(*C7X88NBC6(*hXkJ9XNQTdK*A=hV^(kbn3UZjbfR=5]b3i45)CE]*HGg[ImJ5?fF1hhGdI6]hdOAR*X2KJR:KYPX2BSY[11:kKNF289NeBBaVABOUCCR:VXZ]|:TUkYhXLC9[*;IYdC6XXB(T=0lIj|hE17o;Nh19TlS19PNX)25Q_:37M*hJF2aQYA03F|oE68kS1e9Z4:fe[K:iU2aGMV52PHmT1;(Yejk9G5CLPfm(7=b9i09`2Mc(2X2Ea(i:gR9h=^35YFTAJ0cRi723Xii*KTnf00D7^1mQ1bKZ5[Sm3QWiBZWIYkgCL|6`;jJIUQgXULO(bM3)hPMT2gU^8^HBB^8V9U]_i_OgDIK5S7P_kgR3FF|6Q_]Fn_=DeX[?CMo1FHGLI[cOn_g734jgBNQCNhP[U|?1FiCCO_K`eLEV(IJEKZgIFgK)JRg_CbmGhWf81W^YPeY_e^XSHc5i9=T_|7j1PnmBZg4O;damWgf0J7*cXn?O?Xhe132`NN7Q]3?SP)Zo[Xen7cj|gnd=IOf^`]SR_7|YCeF1SlJIj;4okhj7AY5Kc_ZcgiFn?5OOI8XG|m=4SC3kkNZY;ScWIlMK[a81)3^SDVJil]0c`BL*)1N=nkHNk1eIVCWI8H4^EMFniA;Dk6eA8_e:R4k]hLKNaQi4OjbOkWKJX_YilOcH_V3DGJK6nFin_|jOYOPH4^le^^_W9)KOBm]dZ`[8]lb92Mm|Oeam^i]|(SJoX?Bnb_(2__3L_^jem8Q5G^n:Gf3iHn9mOkG?Ve*]J5m7CoW3en_YZ=oh7kR]2]P.mmf-->
  <defs
     id="defs2" />
  <g
     aria-label="m"
     style="font-size:6px;font-family:MMCenturyNew;fill:#000000"
     id="text4">
    <path
       d="m 12.2255,12.8125 v -0.186 c -0.258,0 -0.468,0 -0.468,-0.234 v -1.422 c 0,-0.216 -0.018,-0.45 -0.186,-0.618 -0.162,-0.156 -0.384,-0.234 -0.606,-0.234 -0.234,0 -0.648,0.084 -0.882,0.6 -0.06,-0.468 -0.492,-0.6 -0.78,-0.6 -0.564,0 -0.786,0.396 -0.888,0.618 v -0.57 h -0.114 l -0.738,0.06 v 0.18 c 0.36,0 0.462,0.006 0.462,0.336 v 1.65 c 0,0.234 -0.21,0.234 -0.468,0.234 v 0.186 h 1.35 v -0.186 c -0.264,0 -0.468,-0.006 -0.468,-0.234 v -1.08 c 0,-0.444 0.288,-0.966 0.786,-0.966 0.45,0 0.456,0.48 0.456,0.624 v 1.422 c 0,0.228 -0.204,0.234 -0.468,0.234 v 0.186 h 1.35 v -0.186 c -0.258,0 -0.468,0 -0.468,-0.234 v -1.08 c 0,-0.57 0.414,-0.966 0.792,-0.966 0.45,0 0.456,0.48 0.456,0.624 v 1.422 c 0,0.228 -0.204,0.234 -0.468,0.234 v 0.186 z"
       style="font-size:6px;font-family:MMCenturyNew;fill:#000000"
       id="path832" />
  </g>
  <g
     aria-label="i"
     style="font-size:6px;font-family:MMCenturyNew;fill:#000000"
     id="text6">
    <path
       d="m 13.4058,9.0265 c 0,-0.174 -0.144,-0.318 -0.318,-0.318 -0.174,0 -0.318,0.144 -0.318,0.318 0,0.174 0.144,0.318 0.318,0.318 0.174,0 0.318,-0.144 0.318,-0.318 z m 0.462,3.786 v -0.186 c -0.258,0 -0.462,0 -0.462,-0.234 v -2.226 h -0.114 l -0.762,0.06 v 0.18 c 0.354,0 0.456,0.012 0.456,0.336 v 1.65 c 0,0.234 -0.198,0.234 -0.462,0.234 v 0.186 z"
       style="font-size:6px;font-family:MMCenturyNew;fill:#000000"
       id="path829" />
  </g>
  <g
     aria-label="n"
     style="font-size:6px;font-family:MMCenturyNew;fill:#000000"
     id="text8">
    <path
       d="m 17.1885,12.8125 v -0.186 c -0.258,0 -0.468,0 -0.468,-0.234 v -1.422 c 0,-0.216 -0.018,-0.45 -0.186,-0.618 -0.162,-0.156 -0.384,-0.234 -0.606,-0.234 -0.564,0 -0.786,0.396 -0.888,0.618 v -0.57 h -0.114 l -0.738,0.06 v 0.18 c 0.36,0 0.462,0.006 0.462,0.336 v 1.65 c 0,0.234 -0.21,0.234 -0.468,0.234 v 0.186 h 1.35 v -0.186 c -0.264,0 -0.468,-0.006 -0.468,-0.234 v -1.08 c 0,-0.444 0.288,-0.966 0.786,-0.966 0.45,0 0.456,0.48 0.456,0.624 v 1.422 c 0,0.228 -0.204,0.234 -0.468,0.234 v 0.186 z"
       style="font-size:6px;font-family:MMCenturyNew;fill:#000000"
       id="path826" />
  </g>
  <g
     aria-label="{"
     style="font-style:italic;font-size:12px;font-family:MMCenturyOldGreek;fill:#000000"
     id="text10">
    <path
       d="m 2.9465,9.3547996 c 0.264,-0.828 0.54,-2.112 0.912,-3.24 0.372,-1.104 0.924,-1.344 1.356,-1.344 0.684,0 0.924,0.636 0.924,1.356 0,2.424 -2.076,3.276 -2.856,3.276 -0.132,0 -0.24,-0.012 -0.336,-0.048 z m -0.9,0.516 C 1.8065,10.5188 1.6865,10.8788 1.3745,11.3708 c -0.096,0.144 -0.132,0.288 -0.132,0.408 0,0.3 0.228,0.492 0.492,0.492 0.24,0 0.492,-0.168 0.6,-0.576 0.108,-0.444 0.264,-1.188 0.444,-1.7760004 0.168,0.036 0.324,0.048 0.492,0.048 1.68,0 3.168,-1.704 3.168,-3.888 0,-1.032 -0.324,-2.064 -1.272,-2.064 -0.996,0 -1.488,0.984 -1.908,2.316 -0.432,1.368 -0.984,2.892 -0.984,2.892 -0.912,-0.384 -1.308,-1.008 -1.308,-1.86 0,-1.572 1.272,-2.916 2.016,-3.156 0.156,-0.048 0.228,-0.12 0.228,-0.18 0,-0.048 -0.048,-0.084 -0.144,-0.084 -0.6,0 -3.048,1.092 -3.048,3.372 0,1.224 0.828,2.136 2.028,2.556 z"
       style="font-style:italic;font-size:12px;font-family:MMCenturyOldGreek;fill:#000000"
       id="path823" />
  </g>
</svg>
